<svg width="25" height="15" viewBox="0 0 25 15" fill="none" xmlns="http://www.w3.org/2000/svg">
<path d="M24.3965 12.8016C24.3669 12.7379 24.3394 12.6851 24.3138 12.6429C23.8908 11.881 23.0824 10.9458 21.8891 9.8371L21.8639 9.81171L21.8513 9.79926L21.8385 9.7865H21.8257C21.2842 9.27022 20.9412 8.92309 20.7976 8.74537C20.5348 8.40682 20.4759 8.06414 20.6196 7.71692C20.721 7.45458 21.1022 6.90056 21.7621 6.0541C22.1092 5.60551 22.3842 5.24597 22.5872 4.9751C24.0514 3.02847 24.6862 1.78454 24.4915 1.24284L24.4158 1.11625C24.365 1.04004 24.2339 0.970319 24.0225 0.906735C23.8107 0.843285 23.5399 0.832792 23.2098 0.875077L19.5538 0.900333C19.4946 0.879346 19.41 0.881302 19.2998 0.906735C19.1898 0.932169 19.1347 0.94493 19.1347 0.94493L19.0711 0.976722L19.0206 1.01492C18.9783 1.04017 18.9317 1.08459 18.8809 1.14809C18.8303 1.21136 18.788 1.28561 18.7542 1.37023C18.3562 2.39428 17.9037 3.34638 17.3957 4.2265C17.0826 4.75131 16.795 5.20613 16.5323 5.59123C16.27 5.9762 16.05 6.25984 15.8724 6.44165C15.6946 6.62364 15.534 6.76944 15.3899 6.87958C15.246 6.98976 15.1361 7.03631 15.06 7.01928C14.9838 7.00225 14.9119 6.98536 14.844 6.96846C14.7255 6.89225 14.6303 6.7886 14.5585 6.65743C14.4864 6.52627 14.4378 6.36117 14.4124 6.16228C14.3872 5.96326 14.3722 5.79208 14.368 5.64815C14.364 5.5044 14.3658 5.30106 14.3744 5.03872C14.3832 4.77625 14.3872 4.59867 14.3872 4.50556C14.3872 4.18391 14.3934 3.83482 14.406 3.45821C14.4188 3.0816 14.4292 2.7832 14.4379 2.56337C14.4465 2.34332 14.4505 2.11051 14.4505 1.86507C14.4505 1.61963 14.4356 1.42714 14.406 1.28744C14.3769 1.14791 14.3321 1.01247 14.2731 0.881169C14.2137 0.75 14.1268 0.648533 14.0128 0.576502C13.8986 0.504559 13.7566 0.447467 13.5876 0.405049C13.139 0.303538 12.5678 0.248625 11.8736 0.240088C10.2996 0.223191 9.28814 0.324836 8.83959 0.544888C8.66187 0.637862 8.50104 0.764895 8.35725 0.925588C8.20487 1.11185 8.18361 1.21349 8.29362 1.23021C8.80149 1.30629 9.16102 1.48828 9.37262 1.77601L9.44888 1.92847C9.50819 2.03848 9.56742 2.23323 9.62669 2.51246C9.68587 2.7917 9.72407 3.10059 9.74087 3.43896C9.78312 4.05687 9.78312 4.58582 9.74087 5.02583C9.6985 5.46602 9.65848 5.80871 9.62029 6.05415C9.58209 6.29959 9.525 6.49848 9.44888 6.65076C9.37262 6.8031 9.32189 6.89621 9.29646 6.93C9.27107 6.96379 9.2499 6.98509 9.2331 6.99345C9.12309 7.0356 9.00869 7.05708 8.89028 7.05708C8.77169 7.05708 8.6279 6.99776 8.45867 6.87922C8.28948 6.76068 8.11389 6.59785 7.9319 6.39047C7.74991 6.18305 7.54467 5.89319 7.31608 5.52085C7.08767 5.14851 6.85067 4.70845 6.60523 4.20067L6.40217 3.83242C6.27522 3.59551 6.10181 3.25056 5.88176 2.79788C5.66157 2.34501 5.46696 1.90695 5.29777 1.48379C5.23014 1.30607 5.12854 1.17076 4.99315 1.07766L4.92961 1.03946C4.88737 1.00567 4.81956 0.969785 4.72654 0.931546C4.63339 0.893351 4.53619 0.865962 4.43455 0.84911L0.956178 0.874366C0.600733 0.874366 0.359561 0.95489 0.232572 1.11572L0.181749 1.19179C0.15636 1.23417 0.143555 1.30184 0.143555 1.39499C0.143555 1.4881 0.168944 1.60237 0.219766 1.73768C0.727544 2.93109 1.27974 4.08204 1.87636 5.1907C2.47298 6.29937 2.99143 7.19242 3.4314 7.86908C3.87146 8.54622 4.32001 9.1853 4.77705 9.78601C5.2341 10.3869 5.53663 10.772 5.68465 10.9412C5.83285 11.1107 5.94926 11.2374 6.03387 11.3221L6.3513 11.6267C6.55441 11.8298 6.85267 12.0731 7.24623 12.3566C7.63986 12.6402 8.07566 12.9195 8.55382 13.1947C9.03207 13.4696 9.58845 13.6939 10.2233 13.8673C10.858 14.0409 11.4758 14.1106 12.0767 14.077H13.5366C13.8327 14.0514 14.057 13.9583 14.2095 13.7976L14.26 13.734C14.294 13.6835 14.3258 13.605 14.3551 13.4994C14.3848 13.3936 14.3996 13.2771 14.3996 13.1503C14.3909 12.7865 14.4186 12.4586 14.4819 12.1666C14.5452 11.8747 14.6173 11.6547 14.698 11.5065C14.7786 11.3584 14.8696 11.2335 14.9708 11.1322C15.0723 11.0307 15.1446 10.9692 15.187 10.948C15.2291 10.9267 15.2628 10.9123 15.2882 10.9036C15.4913 10.8359 15.7303 10.9015 16.0057 11.1005C16.2808 11.2994 16.5388 11.545 16.7801 11.8369C17.0214 12.129 17.3112 12.4567 17.6496 12.8206C17.9883 13.1846 18.2844 13.4551 18.5382 13.6331L18.792 13.7854C18.9615 13.8871 19.1816 13.9802 19.4525 14.0648C19.7229 14.1494 19.9598 14.1706 20.1632 14.1283L23.4129 14.0776C23.7343 14.0776 23.9845 14.0244 24.1619 13.9188C24.3396 13.813 24.4452 13.6964 24.4793 13.5697C24.5133 13.4428 24.5151 13.2988 24.4857 13.1378C24.4556 12.9773 24.426 12.865 24.3965 12.8016Z" fill="#2B414E"/>
</svg>
