<svg width="98" height="108" viewBox="0 0 98 108" fill="none" xmlns="http://www.w3.org/2000/svg">
<path d="M0.717921 106.096V102.756C0.717921 102.232 0.912175 101.823 1.30068 101.531C1.47804 101.4 1.6723 101.316 1.87922 101.269C2.08614 101.227 2.39019 101.206 2.79559 101.206H5.26176V106.1H5.86563V107.173H0.168945V106.1H0.717921V106.096ZM1.95101 106.096H4.03712V102.296H2.90538C2.5591 102.296 2.31418 102.342 2.1706 102.439C2.02702 102.536 1.95523 102.701 1.95523 102.942V106.096H1.95101Z" fill="#F8F4EF"/>
<path d="M9.91992 101.202H14.2146V102.275H11.1446V103.55H13.9528V104.559H11.1446V106.092H14.3413V107.165H9.91992V101.202Z" fill="#F8F4EF"/>
<path d="M18.8135 101.202H21.4232C21.8371 101.202 22.1496 101.223 22.3607 101.265C22.5634 101.308 22.7492 101.396 22.9181 101.527C23.3024 101.814 23.4924 102.224 23.4924 102.752C23.4924 103.288 23.2686 103.702 22.8168 103.993C23.3995 104.234 23.6909 104.682 23.6909 105.341C23.6909 105.944 23.4713 106.413 23.0322 106.751C22.8379 106.907 22.6225 107.013 22.386 107.072C22.1411 107.135 21.8075 107.165 21.3852 107.165H18.8177V101.202H18.8135ZM20.0381 102.279V103.571H21.2712C21.647 103.571 21.9004 103.525 22.0398 103.428C22.1707 103.339 22.2382 103.174 22.2382 102.921C22.2382 102.68 22.1707 102.511 22.0313 102.418C21.892 102.321 21.6428 102.275 21.2965 102.275H20.0381V102.279ZM20.0381 104.559V106.092H21.2374C21.6935 106.092 22.0102 106.037 22.1833 105.923C22.348 105.818 22.4325 105.615 22.4325 105.319C22.4325 105.015 22.3565 104.813 22.2002 104.703C22.0398 104.602 21.723 104.551 21.2543 104.551H20.0381V104.559Z" fill="#F8F4EF"/>
<path d="M27.8877 101.202H32.1824V102.275H29.1123V103.55H31.9206V104.559H29.1123V106.092H32.3091V107.165H27.8877V101.202Z" fill="#F8F4EF"/>
<path d="M36.7815 102.756C36.7815 102.321 36.9673 101.954 37.3389 101.654C37.7148 101.354 38.1962 101.206 38.7916 101.206H41.5998V107.173H40.3752V102.266H38.8972C38.3017 102.266 38.0061 102.49 38.0061 102.942V107.173H36.7815V102.756Z" fill="#F8F4EF"/>
<path d="M45.924 104.213C45.924 103.588 46.0422 103.035 46.2829 102.562C46.5152 102.093 46.853 101.73 47.2922 101.472C47.7313 101.219 48.2381 101.088 48.804 101.088C49.222 101.088 49.6063 101.16 49.9568 101.303C50.3073 101.447 50.6029 101.65 50.8479 101.916C51.0928 102.177 51.2828 102.494 51.4264 102.866C51.5573 103.237 51.6249 103.651 51.6249 104.107C51.6249 104.72 51.5066 105.264 51.2744 105.742C51.0421 106.223 50.7085 106.603 50.282 106.873C49.847 107.148 49.3572 107.283 48.804 107.283C48.2339 107.283 47.7314 107.152 47.2964 106.89C46.8572 106.637 46.5194 106.278 46.2787 105.818C46.0422 105.349 45.924 104.817 45.924 104.213ZM47.1908 104.116C47.1908 104.694 47.3175 105.184 47.5751 105.594C47.8285 105.999 48.2254 106.198 48.7744 106.198C49.2643 106.198 49.6528 106.008 49.9399 105.632C50.2229 105.256 50.3622 104.758 50.3622 104.137C50.3622 103.52 50.2229 103.035 49.9484 102.684C49.6654 102.342 49.2812 102.169 48.7913 102.169C48.483 102.169 48.2085 102.249 47.9721 102.405C47.7356 102.562 47.5498 102.781 47.4189 103.068C47.2795 103.364 47.2077 103.71 47.1908 104.116Z" fill="#F8F4EF"/>
<path d="M55.8098 101.202H60.6281V107.169H59.4035V102.275H57.0345V107.169H55.8098V101.202Z" fill="#F8F4EF"/>
<path d="M65.0879 101.202H66.9797L67.7272 104.627C67.7568 104.749 67.7905 104.91 67.8285 105.113C67.8623 105.319 67.9045 105.535 67.9552 105.763C68.0735 105.113 68.1453 104.732 68.1706 104.627L68.9518 101.202H70.7972V107.169H69.6444V102.245L68.538 107.169H67.3471L66.2576 102.245V107.169H65.0879V101.202Z" fill="#F8F4EF"/>
<path d="M75.3026 101.202H79.5973V102.275H76.5273V103.55H79.3355V104.559H76.5273V106.092H79.724V107.165H75.3026V101.202Z" fill="#F8F4EF"/>
<path d="M84.1914 101.202H85.4161V103.516H87.7851V101.202H89.0097V107.169H87.7851V104.593H85.4161V107.169H84.1914V101.202Z" fill="#F8F4EF"/>
<path d="M92.9336 101.202H97.7139V102.275H95.9487V107.169H94.7241V102.275H92.9336V101.202Z" fill="#F8F4EF"/>
<path d="M4.39603 92.4051V96.8603H0V82.2744H6.9171C7.90526 82.2744 8.66116 82.3378 9.1848 82.4687C9.70844 82.5996 10.2194 82.8318 10.7219 83.1697C11.3469 83.592 11.8494 84.1874 12.2379 84.9602C12.6265 85.733 12.8165 86.548 12.8165 87.401C12.8165 88.9593 12.3309 90.1839 11.3596 91.0749C10.3883 91.9617 9.04544 92.4094 7.3225 92.4094H4.39603V92.4051ZM4.39603 85.8554V89.0099H6.59194C7.18737 89.0099 7.63922 88.8664 7.94326 88.5834C8.24731 88.3005 8.39934 87.8993 8.39934 87.3841C8.39934 86.8563 8.25576 86.4677 7.97283 86.2228C7.68567 85.9779 7.24226 85.8554 6.62994 85.8554H4.39603Z" fill="#F8F4EF"/>
<path d="M21.3843 91.1051V93.0603H29.4796V96.8652H16.9883V82.2793H29.2769V86.0841H21.3843V87.8957H28.179V91.1094H21.3843V91.1051Z" fill="#F8F4EF"/>
<path d="M38.5757 96.8603H34.1797V82.2744H43.7403V86.0792H38.5715V96.8603H38.5757Z" fill="#F8F4EF"/>
<path d="M47.4865 82.2744H51.8614V89.9854C52.4315 88.9128 52.8791 88.1147 53.2042 87.5826L56.3165 82.2744H60.7294V96.8603H56.3587V89.1071C55.966 89.9221 55.5437 90.7075 55.0961 91.4677L51.9416 96.8603H47.4865V82.2744Z" fill="#F8F4EF"/>
<path d="M65.2695 89.5381C65.2695 88.3979 65.4469 87.3591 65.7974 86.4258C66.1479 85.4883 66.6462 84.6902 67.2839 84.023C67.9215 83.36 68.7027 82.8448 69.6233 82.4858C70.5439 82.1269 71.5574 81.9453 72.6554 81.9453C73.7956 81.9453 74.8217 82.1269 75.7381 82.4858C76.6544 82.8448 77.4357 83.3558 78.086 84.0103C78.7363 84.6691 79.2389 85.4672 79.5894 86.4089C79.9441 87.3506 80.1172 88.3937 80.1172 89.5339C80.1172 91.0414 79.8132 92.3759 79.2009 93.5414C78.5928 94.7069 77.7102 95.6148 76.5658 96.2567C75.4214 96.8986 74.1123 97.2237 72.6511 97.2237C70.4384 97.2237 68.6563 96.5185 67.3007 95.1081C65.9494 93.7018 65.2695 91.8438 65.2695 89.5381ZM69.6825 89.5381C69.6825 90.7585 69.9527 91.734 70.4975 92.4688C71.0422 93.2035 71.7601 93.5667 72.6554 93.5667C73.5633 93.5667 74.2854 93.2078 74.8217 92.4899C75.358 91.772 75.6241 90.7881 75.6241 89.5381C75.6241 88.3177 75.358 87.3422 74.8217 86.6201C74.2854 85.8937 73.5633 85.5305 72.6554 85.5305C71.7728 85.5305 71.0591 85.9022 70.5101 86.6412C69.9569 87.376 69.6825 88.343 69.6825 89.5381Z" fill="#F8F4EF"/>
<path d="M97.6802 82.2744V96.8603H93.3053V91.1045H88.8501V96.8603H84.4541V82.2744H88.8501V87.3419H93.3053V82.2744H97.6802Z" fill="#F8F4EF"/>
<path d="M28.1503 53.4196L38.9567 20.3924L40.2911 16.3173L42.6939 16.3215L69.1124 16.3722L68.7745 15.895L57.681 0L29.8057 8.53025L13.86 13.4119L13.518 33.4749L13.2646 48.3648L13.083 59.1543L25.2449 63.3308L25.4265 63.3899L33.2684 66.0841L56.4015 74.0189L28.1503 53.4196Z" fill="#F8F4EF"/>
<path d="M63.4278 26.2958L81.9747 34.1715L77.186 19.3322L62.4607 19.3027L54.7709 19.29L42.4189 19.2646L32.6471 49.1247L32.2122 50.4592L31.6083 52.3046L58.8966 72.2198L52.064 60.7588L44.4628 48.0099L63.4278 26.2958Z" fill="#F8F4EF"/>
<path d="M72.4559 33.3267L64.3649 29.6992L48.0898 48.3349L60.1209 68.5203L60.7839 69.4916L84.7868 64.0229L86.8307 40.3578L86.9067 39.4668L72.4559 33.3267Z" fill="#F8F4EF"/>
</svg>
