<svg width="25" height="18" viewBox="0 0 25 18" fill="none" xmlns="http://www.w3.org/2000/svg">
<path d="M24.0619 6.38214C24.0528 6.10651 24.0385 5.83217 24.0165 5.55654C23.927 4.39092 23.796 3.05657 23.0204 2.12407C22.3563 1.32681 21.3291 1.14649 20.3537 1.03573C19.1177 0.896625 17.8765 0.812906 16.634 0.766538C14.1178 0.671228 11.599 0.726611 9.08283 0.781994C7.78972 0.81033 6.49662 0.838665 5.2074 0.940416C3.62506 1.06664 1.99603 1.29719 1.25934 2.86724C0.59787 4.27757 0.679581 6.06787 0.671799 7.58382C0.664017 8.94522 0.658829 10.3053 0.713303 11.6654C0.784638 13.43 0.889694 15.7277 2.80795 16.5005C3.83129 16.914 5.06733 17.0054 6.16069 17.0762C7.31891 17.1509 8.48102 17.1419 9.64184 17.1587C12.0763 17.1947 14.5095 17.111 16.9426 17.0634C18.6326 17.0299 20.368 17.0106 21.9841 16.4632C23.3796 15.9905 23.7441 14.4874 23.9335 13.184C24.1215 11.8895 24.0735 10.5758 24.0709 9.27108C24.0696 8.31024 24.0956 7.34426 24.0619 6.38214Z" fill="#2B414E"/>
<path d="M16.0631 8.91637C14.0191 7.7237 12.0191 6.55807 10.001 5.38086C10.001 7.75718 10.001 10.0923 10.001 12.4545C12.0256 11.2721 14.0256 10.1052 16.0631 8.91637Z" fill="#71B482"/>
</svg>
