<svg width="23" height="29" viewBox="0 0 23 29" fill="none" xmlns="http://www.w3.org/2000/svg">
<path d="M20.1216 13C20.1216 20 11.4966 26 11.4966 26C11.4966 26 2.87158 20 2.87158 13C2.87158 10.6131 3.78028 8.32387 5.39779 6.63604C7.01529 4.94821 9.20909 4 11.4966 4C13.7841 4 15.9779 4.94821 17.5954 6.63604C19.2129 8.32387 20.1216 10.6131 20.1216 13Z" stroke="#71B482" stroke-width="3" stroke-linecap="round" stroke-linejoin="round"/>
<path d="M11.4966 16C13.0844 16 14.3716 14.6569 14.3716 13C14.3716 11.3431 13.0844 10 11.4966 10C9.90876 10 8.62158 11.3431 8.62158 13C8.62158 14.6569 9.90876 16 11.4966 16Z" stroke="#71B482" stroke-width="3" stroke-linecap="round" stroke-linejoin="round"/>
</svg>
