<svg width="26" height="22" viewBox="0 0 26 22" fill="none" xmlns="http://www.w3.org/2000/svg">
<path d="M2.19557 9.90349L17.0746 3.77308C18.5433 3.1345 23.5243 1.09103 23.5243 1.09103C23.5243 1.09103 25.8232 0.197013 25.6316 2.3682C25.5677 3.26221 25.0569 6.39127 24.546 9.77577L22.9495 19.8015C22.9495 19.8015 22.8218 21.2703 21.7362 21.5257C20.6506 21.7811 18.8626 20.6317 18.5433 20.3763C18.2879 20.1847 13.7539 17.3111 12.0936 15.9062C11.6466 15.523 11.1357 14.7567 12.1575 13.8627C14.4564 11.7554 17.2023 9.13719 18.8626 7.47687C19.6289 6.71057 20.3952 4.92253 17.2023 7.09372L8.19826 13.1603C8.19826 13.1603 7.17652 13.7988 5.26077 13.2241C3.34502 12.6494 1.10998 11.8831 1.10998 11.8831C1.10998 11.8831 -0.422625 10.9252 2.19557 9.90349Z" fill="#2B414E"/>
</svg>
