<svg width="13" height="24" viewBox="0 0 13 24" fill="none" xmlns="http://www.w3.org/2000/svg">
<path d="M6.50018 3.63149C7.82472 3.63149 8.89735 4.77828 8.89735 6.19439C8.89735 7.6105 7.82472 8.75729 6.50018 8.75729C5.17564 8.75729 4.10301 7.6105 4.10301 6.19439C4.10301 4.77828 5.17564 3.63149 6.50018 3.63149ZM6.50018 12.3888C9.6937 12.3888 12.294 9.60869 12.294 6.19439C12.294 2.78009 9.6937 0 6.50018 0C3.30666 0 0.706334 2.78009 0.706334 6.19439C0.706334 9.60869 3.30666 12.3888 6.50018 12.3888ZM8.84047 17.4364C10.035 17.1497 11.1726 16.6458 12.2046 15.9508C13.001 15.4208 13.2366 14.3001 12.741 13.4487C12.2453 12.5973 11.197 12.3453 10.4007 12.8753C8.02787 14.4738 4.97249 14.4652 2.59969 12.8753C1.80335 12.3453 0.763216 12.5973 0.259404 13.44C-0.236283 14.2914 -0.000628551 15.4121 0.787594 15.9421C1.8196 16.6371 2.95724 17.141 4.15176 17.4277L0.909485 20.8941C0.243152 21.6065 0.243152 22.7533 0.909485 23.457C1.57582 24.1694 2.64845 24.1694 3.30666 23.457L6.50018 20.0601L9.68558 23.4657C10.3438 24.1781 11.4164 24.1781 12.0827 23.4657C12.7491 22.762 12.7491 21.6152 12.0827 20.9028L8.84047 17.4364Z" fill="#2B414E"/>
</svg>
