<svg width="20" height="20" viewBox="0 0 20 20" fill="none" xmlns="http://www.w3.org/2000/svg">
<path fill-rule="evenodd" clip-rule="evenodd" d="M0.292893 1.70711C-0.097631 1.31658 -0.097631 0.683417 0.292893 0.292893C0.683419 -0.0976311 1.31658 -0.0976311 1.70711 0.292893L9.75 8.33579L17.7929 0.292893C18.1834 -0.0976311 18.8166 -0.0976311 19.2071 0.292893C19.5976 0.683417 19.5976 1.31658 19.2071 1.70711L11.1642 9.75L19.2071 17.7929C19.5976 18.1834 19.5976 18.8166 19.2071 19.2071C18.8166 19.5976 18.1834 19.5976 17.7929 19.2071L9.75 11.1642L1.70711 19.2071C1.31658 19.5976 0.683418 19.5976 0.292894 19.2071C-0.0976306 18.8166 -0.0976306 18.1834 0.292894 17.7929L8.33579 9.75L0.292893 1.70711Z" fill="#2B414E"/>
</svg>
