<svg width="18" height="18" viewBox="0 0 18 18" fill="none" xmlns="http://www.w3.org/2000/svg">
<path d="M1.22331 1.40142C1.02641 1.43427 0.895203 1.53283 0.763906 1.66423C0.665503 1.82849 0.599899 1.99275 0.599899 2.15701C0.599899 4.91653 1.28891 7.47895 2.66693 9.84422C4.04495 12.1439 5.84949 13.9835 8.14622 15.3304C10.5085 16.7102 13.0677 17.4001 15.8237 17.4001C16.0206 17.4001 16.1846 17.3673 16.3158 17.2359C16.4799 17.1373 16.5783 16.9731 16.5783 16.7759L17.3658 13.3593C17.4314 13.1951 17.3986 13.0309 17.3001 12.8337C17.2345 12.6694 17.1033 12.5381 16.9064 12.4724L13.2317 10.8955C13.1005 10.8298 12.9364 10.8298 12.7724 10.8626C12.6083 10.9284 12.4443 10.9941 12.313 11.1255L10.7054 13.0966C9.42575 12.5052 8.27742 11.7168 7.29311 10.6984C6.3088 9.71284 5.48858 8.56305 4.89797 7.28184L6.8666 5.67211C6.99781 5.54071 7.0963 5.40931 7.1291 5.24505C7.19471 5.08078 7.1619 4.91653 7.0963 4.75227L5.52138 1.07291C5.45578 0.908649 5.35737 0.777243 5.16047 0.678689C4.99647 0.612985 4.83237 0.580134 4.63556 0.612985L1.22331 1.40142Z" fill="#F8F4EF"/>
</svg>
