<svg width="95" height="41" viewBox="0 0 95 41" fill="none" xmlns="http://www.w3.org/2000/svg">
<path d="M4.83511 29.592C6.02932 28.0072 7.31091 27.1428 9.32069 27.1428C12.8159 27.1428 14.4762 29.1886 14.4762 32.7904V40.6854H9.20418V33.7412C9.20418 32.4446 8.85465 31.2921 7.34004 31.2921C5.70892 31.2921 5.27201 32.3294 5.27201 34.0006V40.7142H0V27.5174H4.83511V29.592Z" fill="white"/>
<path d="M23.9761 27.1428C28.7383 27.1428 31.6666 29.8121 31.6666 33.8021C31.6666 38.4945 28.3242 40.7143 23.9761 40.7143C19.6576 40.7143 16.2856 38.4664 16.2856 34.0831C16.3152 29.6155 19.421 27.1428 23.9761 27.1428ZM21.6986 33.8021C21.6986 36.2185 22.6451 37.2863 24.0057 37.2863C25.4551 37.2863 26.3128 36.2466 26.3128 33.8021C26.3128 31.9195 25.4255 30.5708 24.0353 30.5708C22.231 30.5708 21.6986 32.3691 21.6986 33.8021Z" fill="white"/>
<path d="M37.6692 27.1428L39.9223 35.6955L42.1472 27.1428H47.0477L42.7105 40.7143H37.0214L32.5715 27.1428H37.6692Z" fill="white"/>
<path d="M53.2642 35.0665C53.2642 36.5838 54.49 37.5953 55.8909 37.5953C56.7373 37.5953 57.4962 37.2301 57.8756 36.4714H62.9247C62.02 39.6465 58.6636 40.7143 55.5407 40.7143C51.2796 40.7143 47.9524 38.354 47.9524 34.055C47.9524 29.8402 51.2212 27.1428 55.5115 27.1428C60.4439 27.1428 63.3333 30.2617 63.3333 35.0665H53.2642ZM58.0507 32.4815C58.0507 31.3014 56.9708 30.2617 55.7158 30.2617C54.1398 30.2617 53.235 31.1047 53.235 32.4815H58.0507Z" fill="white"/>
<path d="M70.5714 5.42847H65.1428V40.7142H70.5714V5.42847Z" fill="#BFD8C3"/>
<path d="M77.8095 0H73.2856V40.7143H77.8095V0Z" fill="#BFD8C3"/>
<path d="M80.4592 31.4418C80.4592 28.7163 82.4578 27.1428 87.6717 27.1428C93.9283 27.1428 94.3049 29.3907 94.3049 32.4534V38.4664C94.3049 39.1969 94.3339 39.5622 95.0001 40.0961V40.349H89.5834L89.3228 38.9722C87.8455 40.3209 86.3103 40.7143 84.3406 40.7143C81.8495 40.7143 79.6191 39.506 79.6191 36.8367C79.6191 31.0204 89.0331 33.6616 89.0331 31.2452C89.0331 30.3179 87.8745 30.2055 87.3241 30.2055C86.6 30.2055 85.6151 30.346 85.4703 31.4418H80.4592ZM85.0647 36.7524C85.0647 37.3987 85.702 37.8201 86.7448 37.8201C88.5986 37.8201 89.0621 36.6119 89.0621 34.6731C87.3241 35.4599 85.0647 35.0665 85.0647 36.7524Z" fill="white"/>
</svg>
