<svg width="148" height="168" viewBox="0 0 148 168" fill="none" xmlns="http://www.w3.org/2000/svg">
<path d="M138 0H0V168H138V0Z" fill="white"/>
<path d="M148 0H6V162H148V0Z" fill="#339966"/>
<path d="M29.3441 109.707C30.664 107.955 32.0805 107 34.3018 107C38.165 107 40 109.261 40 113.242V121.968H34.173V114.293C34.173 112.86 33.7867 111.586 32.1127 111.586C30.3099 111.586 29.827 112.732 29.827 114.58V122H24V107.414H29.3441V109.707Z" fill="white"/>
<path d="M50.5 107C55.7635 107 59 109.95 59 114.36C59 119.547 55.3058 122 50.5 122C45.7269 122 42 119.516 42 114.671C42.0327 109.733 45.4654 107 50.5 107ZM47.9827 114.36C47.9827 117.031 49.0288 118.211 50.5327 118.211C52.1346 118.211 53.0827 117.062 53.0827 114.36C53.0827 112.28 52.1019 110.789 50.5654 110.789C48.5712 110.789 47.9827 112.776 47.9827 114.36Z" fill="white"/>
<path d="M65.6342 107L68.1245 116.453L70.5837 107H76L71.2062 122H64.9183L60 107H65.6342Z" fill="white"/>
<path d="M82.871 115.758C82.871 117.435 84.2258 118.553 85.7742 118.553C86.7097 118.553 87.5484 118.149 87.9677 117.311H93.5484C92.5484 120.82 88.8387 122 85.3871 122C80.6774 122 77 119.391 77 114.64C77 109.981 80.6129 107 85.3548 107C90.8065 107 94 110.447 94 115.758H82.871ZM88.1613 112.901C88.1613 111.596 86.9677 110.447 85.5806 110.447C83.8387 110.447 82.8387 111.379 82.8387 112.901H88.1613Z" fill="white"/>
<path d="M102 83H96V122H102V83Z" fill="#BFD8C3"/>
<path d="M110 77H105V122H110V77Z" fill="#BFD8C3"/>
<path d="M112.928 111.752C112.928 108.739 115.137 107 120.9 107C127.815 107 128.232 109.484 128.232 112.87V119.516C128.232 120.323 128.264 120.727 129 121.317V121.596H123.013L122.725 120.075C121.092 121.565 119.395 122 117.218 122C114.465 122 112 120.665 112 117.714C112 111.286 122.405 114.205 122.405 111.534C122.405 110.509 121.124 110.385 120.516 110.385C119.716 110.385 118.627 110.54 118.467 111.752H112.928ZM118.019 117.621C118.019 118.335 118.723 118.801 119.876 118.801C121.925 118.801 122.437 117.466 122.437 115.323C120.516 116.193 118.019 115.758 118.019 117.621Z" fill="white"/>
<path d="M28.7243 128.79V131.943L32.0023 128.79H33.0326L30.3477 131.35L33.0326 134.94H32.096L29.817 131.849L28.7243 132.879V134.94H27.8502V132.879L26.7575 131.849L24.4786 134.94H23.542L26.2268 131.35L23.542 128.79H24.5722L27.8502 131.943V128.79H28.7243Z" fill="white"/>
<path d="M35.2492 128.79V134.035L39.1203 128.79H40.3066V134.94H39.4637V129.695L35.5926 134.94H34.4062V128.79H35.2492Z" fill="white"/>
<path d="M48.1118 128.79V134.94H47.2376V129.57H43.7723V132.068C43.7723 134.472 43.1479 135.065 42.2426 135.065C42.0553 135.065 41.8367 135.034 41.6494 135.002V134.316C41.7119 134.347 41.8679 134.347 42.0553 134.347C42.7421 134.347 42.8982 133.535 42.8982 131.818V128.79H48.1118Z" fill="white"/>
<path d="M53.1998 128.634C55.2914 128.634 56.5714 129.914 56.5714 131.881C56.5714 133.847 55.2914 135.127 53.1998 135.127C51.1081 135.127 49.8281 133.847 49.8281 131.881C49.8281 129.914 51.1081 128.634 53.1998 128.634ZM53.1998 134.284C54.7607 134.284 55.6661 133.379 55.6661 131.881C55.6661 130.382 54.7607 129.445 53.1998 129.445C51.6388 129.445 50.7335 130.351 50.7335 131.881C50.7335 133.41 51.6388 134.284 53.1998 134.284Z" fill="white"/>
<path d="M59.132 128.79V134.035L63.0031 128.79H64.1895V134.94H63.3465V129.695L59.4754 134.94H58.2891V128.79H59.132ZM60.2871 127.135C60.3183 127.51 60.6305 127.697 61.1924 127.697C61.7544 127.697 62.0666 127.51 62.0978 127.135H62.6597C62.5661 127.947 62.0978 128.353 61.1924 128.353C60.2871 128.353 59.7876 127.978 59.7251 127.135H60.2871Z" fill="white"/>
<path d="M70.5891 131.943L74.1793 128.79H75.3031L72.3686 131.35L75.3031 134.94H74.2729L71.7754 131.849L70.5578 132.879V134.94H69.6837V128.79H70.5578L70.5891 131.943Z" fill="white"/>
<path d="M79.5181 128.634C81.6098 128.634 82.8898 129.914 82.8898 131.881C82.8898 133.847 81.6098 135.127 79.5181 135.127C77.4265 135.127 76.1465 133.847 76.1465 131.881C76.1465 129.914 77.4265 128.634 79.5181 128.634ZM79.5181 134.284C81.0791 134.284 81.9844 133.379 81.9844 131.881C81.9844 130.382 81.0791 129.445 79.5181 129.445C77.9572 129.445 77.0518 130.351 77.0518 131.881C77.0518 133.41 77.9572 134.284 79.5181 134.284Z" fill="white"/>
<path d="M85.9175 128.79L88.2902 134.159L90.7253 128.79H92.0365V134.94H91.1936V129.539L88.7585 134.94H87.8843L85.4805 129.539V134.94H84.6376V128.79H85.9175Z" fill="white"/>
<path d="M99.5915 128.79V134.94H98.7173V129.57H94.9711V134.94H94.0969V128.79H99.5915Z" fill="white"/>
<path d="M107.396 128.79V134.94H106.522V129.57H103.056V132.068C103.056 134.472 102.432 135.065 101.527 135.065C101.339 135.065 101.121 135.034 100.934 135.002V134.316C100.996 134.347 101.152 134.347 101.339 134.347C102.026 134.347 102.182 133.535 102.182 131.818V128.79H107.396Z" fill="white"/>
<path d="M109.457 128.79H114.358V129.601H110.331V131.412H114.109V132.224H110.331V134.159H114.421V134.971H109.457V128.79Z" fill="white"/>
<path d="M117.043 131.943L120.633 128.79H121.757L118.822 131.35L121.757 134.94H120.727L118.229 131.849L117.012 132.879V134.94H116.138V128.79H117.012V131.943H117.043Z" fill="white"/>
<path d="M125.971 135.127C123.88 135.127 122.6 133.847 122.6 131.881C122.6 129.914 123.88 128.634 125.971 128.634C127.688 128.634 128.906 129.602 129.031 131.038H128.125C127.969 130.039 127.158 129.445 125.971 129.445C124.41 129.445 123.505 130.351 123.505 131.881C123.505 133.41 124.41 134.284 125.971 134.284C127.189 134.284 128.032 133.598 128.188 132.567H129.093C128.937 134.097 127.72 135.127 125.971 135.127Z" fill="white"/>
<path fill-rule="evenodd" clip-rule="evenodd" d="M91 106C89.8835 104.122 88.5808 102.151 87.1852 100.116L84.5179 96.4232C79.4934 89.6945 73.7246 83.0596 69.6617 79.0224C52.0451 61.5589 33.6222 47.4441 25 43C25.8994 46.6304 28.8459 53.1714 32.1335 57.3964C33.4051 57.3964 37.406 57.6468 38.7086 57.8659C39.0808 57.8659 33.0019 58.2727 33.25 58.5857C33.9633 59.6811 34.9868 61.1207 36.2274 62.8107L38.5226 65.8778C41.593 69.9151 45.4699 74.5469 49.4088 78.3651C53.0066 78.4903 58.062 77.927 60.5742 77.1446C57.3177 79.1475 54.3092 79.5231 50.8355 79.6796C53.2547 81.8703 55.6429 83.6855 57.8759 84.7809C61.2566 86.4396 63.8618 86.4083 67.3976 86.0328C65.6607 86.69 63.7998 87.2221 61.8459 87.6602C64.8233 88.0984 71.1194 87.1282 73.2904 86.6274C78.8421 88.0671 85.5414 100.179 84.797 101.525C88.4568 103.559 87.5883 103.215 91 106Z" fill="#BFD8C3"/>
</svg>
