<svg width="107" height="59" viewBox="0 0 107 59" fill="none" xmlns="http://www.w3.org/2000/svg">
<path d="M6.34406 32.707C7.66398 30.9554 9.08048 30 11.3018 30C15.165 30 17 32.2611 17 36.242V44.9682H11.173V37.293C11.173 35.8599 10.7867 34.586 9.11268 34.586C7.30986 34.586 6.82696 35.7325 6.82696 37.5796V45H1V30.414H6.34406V32.707Z" fill="#339966"/>
<path d="M27.5 30C32.7635 30 36 32.9503 36 37.3602C36 42.5466 32.3058 45 27.5 45C22.7269 45 19 42.5155 19 37.6708C19.0327 32.7329 22.4654 30 27.5 30ZM24.9827 37.3602C24.9827 40.0311 26.0288 41.2112 27.5327 41.2112C29.1346 41.2112 30.0827 40.0621 30.0827 37.3602C30.0827 35.2795 29.1019 33.7888 27.5654 33.7888C25.5712 33.7888 24.9827 35.7764 24.9827 37.3602Z" fill="#339966"/>
<path d="M42.6342 30L45.1245 39.4529L47.5837 30H53L48.2062 45H41.9183L37 30H42.6342Z" fill="#339966"/>
<path d="M59.871 38.7578C59.871 40.4348 61.2258 41.5528 62.7742 41.5528C63.7097 41.5528 64.5484 41.1491 64.9677 40.3106H70.5484C69.5484 43.8199 65.8387 45 62.3871 45C57.6774 45 54 42.3913 54 37.6397C54 32.9814 57.6129 30 62.3548 30C67.8065 30 71 33.4472 71 38.7578H59.871ZM65.1613 35.9006C65.1613 34.5963 63.9677 33.4472 62.5806 33.4472C60.8387 33.4472 59.8387 34.3789 59.8387 35.9006H65.1613Z" fill="#339966"/>
<path d="M79 6H73V45H79V6Z" fill="#71B482"/>
<path d="M87 0H82V45H87V0Z" fill="#71B482"/>
<path d="M89.9284 34.7516C89.9284 31.7391 92.1375 30 97.9002 30C104.815 30 105.232 32.4845 105.232 35.8696V42.5155C105.232 43.323 105.264 43.7267 106 44.3168V44.5963H100.013L99.725 43.0745C98.0923 44.5652 96.3955 45 94.2185 45C91.4652 45 89 43.6646 89 40.7143C89 34.2857 99.4049 37.205 99.4049 34.5342C99.4049 33.5093 98.1243 33.3851 97.516 33.3851C96.7156 33.3851 95.6271 33.5404 95.467 34.7516H89.9284ZM95.0188 40.6211C95.0188 41.3354 95.7232 41.8012 96.8757 41.8012C98.9247 41.8012 99.4369 40.4658 99.4369 38.323C97.516 39.1925 95.0188 38.7578 95.0188 40.6211Z" fill="#339966"/>
<path d="M5.72435 51.7898V54.9429L9.00234 51.7898H10.0326L7.34773 54.3498L10.0326 57.9399H9.096L6.81701 54.8493L5.72435 55.8795V57.9399H4.85021V55.8795L3.75755 54.8493L1.47856 57.9399H0.541992L3.22683 54.3498L0.541992 51.7898H1.57222L4.85021 54.9429V51.7898H5.72435Z" fill="#71B482"/>
<path d="M12.2492 51.7898V57.0346L16.1203 51.7898H17.3066V57.9399H16.4637V52.6951L12.5926 57.9399H11.4062V51.7898H12.2492Z" fill="#71B482"/>
<path d="M25.1114 51.7898V57.94H24.2373V52.5703H20.7719V55.0678C20.7719 57.4717 20.1476 58.0648 19.2422 58.0648C19.0549 58.0648 18.8364 58.0336 18.649 58.0024V57.3156C18.7115 57.3468 18.8676 57.3468 19.0549 57.3468C19.7417 57.3468 19.8978 56.5351 19.8978 54.818V51.7898H25.1114Z" fill="#71B482"/>
<path d="M30.2 51.6338C32.2917 51.6338 33.5717 52.9138 33.5717 54.8806C33.5717 56.8474 32.2917 58.1273 30.2 58.1273C28.1083 58.1273 26.8284 56.8474 26.8284 54.8806C26.8284 52.9138 28.1083 51.6338 30.2 51.6338ZM30.2 57.2844C31.761 57.2844 32.6663 56.3791 32.6663 54.8806C32.6663 53.3821 31.761 52.4455 30.2 52.4455C28.6391 52.4455 27.7337 53.3508 27.7337 54.8806C27.7337 56.4103 28.6391 57.2844 30.2 57.2844Z" fill="#71B482"/>
<path d="M36.1316 51.7899V57.0346L40.0028 51.7899H41.1891V57.94H40.3462V52.6952L36.475 57.94H35.2887V51.7899H36.1316ZM37.2867 50.1353C37.3179 50.5099 37.6301 50.6972 38.1921 50.6972C38.754 50.6972 39.0662 50.5099 39.0974 50.1353H39.6594C39.5657 50.9469 39.0974 51.3528 38.1921 51.3528C37.2867 51.3528 36.7872 50.9782 36.7248 50.1353H37.2867Z" fill="#71B482"/>
<path d="M47.5891 54.9429L51.1793 51.7898H52.3031L49.3686 54.3498L52.3031 57.9399H51.2729L48.7754 54.8493L47.5578 55.8795V57.9399H46.6837V51.7898H47.5578L47.5891 54.9429Z" fill="#71B482"/>
<path d="M56.5176 51.6338C58.6093 51.6338 59.8893 52.9138 59.8893 54.8806C59.8893 56.8474 58.6093 58.1273 56.5176 58.1273C54.426 58.1273 53.146 56.8474 53.146 54.8806C53.146 52.9138 54.426 51.6338 56.5176 51.6338ZM56.5176 57.2844C58.0786 57.2844 58.9839 56.3791 58.9839 54.8806C58.9839 53.3821 58.0786 52.4455 56.5176 52.4455C54.9567 52.4455 54.0513 53.3508 54.0513 54.8806C54.0513 56.4103 54.9567 57.2844 56.5176 57.2844Z" fill="#71B482"/>
<path d="M62.9175 51.7898L65.2902 57.1595L67.7253 51.7898H69.0365V57.9399H68.1936V52.539L65.7585 57.9399H64.8843L62.4805 52.539V57.9399H61.6376V51.7898H62.9175Z" fill="#71B482"/>
<path d="M76.5915 51.7898V57.9399H75.7173V52.5703H71.9711V57.9399H71.0969V51.7898H76.5915Z" fill="#71B482"/>
<path d="M84.3962 51.7898V57.94H83.522V52.5703H80.0567V55.0678C80.0567 57.4717 79.4323 58.0648 78.527 58.0648C78.3397 58.0648 78.1212 58.0336 77.9338 58.0024V57.3156C77.9963 57.3468 78.1524 57.3468 78.3397 57.3468C79.0265 57.3468 79.1826 56.5351 79.1826 54.818V51.7898H84.3962Z" fill="#71B482"/>
<path d="M86.4567 51.7898H91.3581V52.6015H87.3308V54.4122H91.1083V55.2239H87.3308V57.1595H91.4205V57.9712H86.4567V51.7898Z" fill="#71B482"/>
<path d="M94.0429 54.9429L97.6331 51.7898H98.757L95.8224 54.3498L98.757 57.9399H97.7268L95.2292 54.8493L94.0117 55.8795V57.9399H93.1376V51.7898H94.0117V54.9429H94.0429Z" fill="#71B482"/>
<path d="M102.971 58.1273C100.88 58.1273 99.5999 56.8474 99.5999 54.8806C99.5999 52.9138 100.88 51.6338 102.971 51.6338C104.689 51.6338 105.906 52.6016 106.031 54.0377H105.126C104.97 53.0386 104.158 52.4455 102.971 52.4455C101.411 52.4455 100.505 53.3508 100.505 54.8806C100.505 56.4103 101.411 57.2844 102.971 57.2844C104.189 57.2844 105.032 56.5976 105.188 55.5674H106.093C105.937 57.0971 104.72 58.1273 102.971 58.1273Z" fill="#71B482"/>
</svg>
