<svg width="39" height="50" viewBox="0 0 39 50" fill="none" xmlns="http://www.w3.org/2000/svg">
<path fill-rule="evenodd" clip-rule="evenodd" d="M29.1782 22.2773V13.1188C29.1782 7.53034 24.6478 3 19.0594 3C13.4709 3 8.94055 7.53034 8.94055 13.1188V22.2773H5.94055V13.1188C5.94055 5.87348 11.814 0 19.0594 0C26.3047 0 32.1782 5.87349 32.1782 13.1188V22.2773H29.1782Z" fill="#2B414E"/>
<mask id="path-2-inside-1_1_215" fill="white">
<rect y="22.2772" width="38.6138" height="27.7227" rx="2"/>
</mask>
<rect y="22.2772" width="38.6138" height="27.7227" rx="2" stroke="#2B414E" stroke-width="6" mask="url(#path-2-inside-1_1_215)"/>
<mask id="path-3-inside-2_1_215" fill="white">
<path fill-rule="evenodd" clip-rule="evenodd" d="M20.7921 35.7411C21.6799 35.2275 22.2773 34.2676 22.2773 33.1682C22.2773 31.5277 20.9474 30.1979 19.307 30.1979C17.6665 30.1979 16.3367 31.5277 16.3367 33.1682C16.3367 34.2676 16.934 35.2275 17.8218 35.7411V42.0791H20.7921V35.7411Z"/>
</mask>
<path d="M20.7921 35.7411L19.2899 33.1443L17.7921 34.0107V35.7411H20.7921ZM17.8218 35.7411H20.8218V34.0107L19.324 33.1443L17.8218 35.7411ZM17.8218 42.0791H14.8218V45.0791H17.8218V42.0791ZM20.7921 42.0791V45.0791H23.7921V42.0791H20.7921ZM19.2773 33.1682C19.2773 33.1702 19.2771 33.1674 19.2786 33.1621C19.28 33.1572 19.2817 33.1534 19.2832 33.1509C19.2845 33.1487 19.2855 33.1476 19.286 33.1471C19.2865 33.1466 19.2876 33.1456 19.2899 33.1443L22.2943 38.3379C24.071 37.3101 25.2773 35.3818 25.2773 33.1682H19.2773ZM19.307 33.1979C19.3089 33.1979 19.3076 33.198 19.3042 33.1973C19.3009 33.1967 19.2975 33.1956 19.2945 33.1943C19.2888 33.1919 19.2865 33.1897 19.286 33.1892C19.2855 33.1887 19.2832 33.1864 19.2808 33.1807C19.2795 33.1776 19.2785 33.1742 19.2778 33.171C19.2771 33.1676 19.2773 33.1663 19.2773 33.1682H25.2773C25.2773 29.8709 22.6043 27.1979 19.307 27.1979V33.1979ZM19.3367 33.1682C19.3367 33.1663 19.3368 33.1676 19.3361 33.171C19.3354 33.1742 19.3344 33.1776 19.3331 33.1807C19.3307 33.1864 19.3285 33.1887 19.328 33.1892C19.3275 33.1897 19.3252 33.1919 19.3194 33.1943C19.3164 33.1956 19.313 33.1967 19.3098 33.1973C19.3063 33.198 19.3051 33.1979 19.307 33.1979V27.1979C16.0097 27.1979 13.3367 29.8709 13.3367 33.1682H19.3367ZM19.324 33.1443C19.3263 33.1456 19.3274 33.1466 19.3279 33.1471C19.3284 33.1476 19.3294 33.1487 19.3307 33.1509C19.3322 33.1534 19.334 33.1572 19.3353 33.1621C19.3368 33.1674 19.3367 33.1702 19.3367 33.1682H13.3367C13.3367 35.3818 14.5429 37.3102 16.3197 38.3379L19.324 33.1443ZM20.8218 42.0791V35.7411H14.8218V42.0791H20.8218ZM20.7921 39.0791H17.8218V45.0791H20.7921V39.0791ZM17.7921 35.7411V42.0791H23.7921V35.7411H17.7921Z" fill="#2B414E" mask="url(#path-3-inside-2_1_215)"/>
</svg>
