<svg width="91" height="70" viewBox="0 0 91 70" fill="none" xmlns="http://www.w3.org/2000/svg">
<path d="M84.1795 10.5299H88.4671V67.3552H2V10.5299H6.28762" stroke="#FFCC33" stroke-width="4" stroke-linejoin="round"/>
<path d="M56.27 2.37455C51.6353 3.41903 44.9404 7.57777 44.9404 7.57777V60.9108C44.9404 60.9108 51.6353 56.7521 56.27 55.7076C65.514 53.6244 79.959 60.9108 79.959 60.9108V7.57777C79.959 7.57777 65.514 0.291293 56.27 2.37455Z" stroke="#FFCC33" stroke-width="4" stroke-linejoin="round"/>
<path d="M33.6109 2.37455C38.2456 3.41903 44.9404 7.57777 44.9404 7.57777V60.9108C44.9404 60.9108 38.2456 56.7521 33.6109 55.7076C24.3669 53.6244 9.92184 60.9108 9.92184 60.9108V7.57777C9.92184 7.57777 24.3669 0.291293 33.6109 2.37455Z" stroke="#FFCC33" stroke-width="4" stroke-linejoin="round"/>
<path d="M17.4257 16.0873C20.3439 14.3797 29.9323 9.68408 36.1856 14.8066" stroke="#FFCC33" stroke-width="4" stroke-linecap="round"/>
<path d="M17.4257 23.6159C20.3439 21.9084 29.9323 17.2128 36.1856 22.3353" stroke="#FFCC33" stroke-width="4" stroke-linecap="round"/>
<path d="M17.4257 31.3817C20.3439 29.6741 29.9323 24.9785 36.1856 30.101" stroke="#FFCC33" stroke-width="4" stroke-linecap="round"/>
</svg>
