<svg width="105" height="93" viewBox="0 0 105 93" fill="none" xmlns="http://www.w3.org/2000/svg">
<path d="M40.845 61.9473H63.4927V74.0883C59.2599 72.6449 55.6195 71.8748 51.9655 71.8706C48.3499 71.8665 44.84 72.612 40.845 74.0347V61.9473Z" fill="#F8F4EF" stroke="#339966" stroke-width="4"/>
<path d="M39.0023 38.6527C35.6359 41.8853 35.636 42.9629 35.636 42.9629L47.3381 47.273C47.3381 47.273 48.7808 45.1179 48.7808 41.5262C48.7808 37.9344 42.3688 35.4201 39.0023 38.6527Z" fill="#F8F4EF" stroke="#339966" stroke-width="4"/>
<path d="M65.6373 38.6527C69.0037 41.8853 69.0037 42.9629 69.0037 42.9629L57.3016 47.273C57.3016 47.273 55.8589 45.1179 55.8589 41.5262C55.8589 37.9344 62.2709 35.4201 65.6373 38.6527Z" fill="#F8F4EF" stroke="#339966" stroke-width="4"/>
<path d="M30.781 45.3055L14.4016 67.5628L40.1407 72.5515L48.7803 47.2243C41.393 40.7749 37.4943 41.0265 30.781 45.3055Z" fill="#F8F4EF" stroke="#339966" stroke-width="4" stroke-linecap="round"/>
<path d="M73.8582 45.3056L90.2375 67.5628L64.4985 72.5515L55.8588 47.2243C63.2462 40.775 67.1448 41.0265 73.8582 45.3056Z" fill="#F8F4EF" stroke="#339966" stroke-width="4" stroke-linecap="round"/>
<circle cx="24.5556" cy="76.554" r="14.2204" fill="#F8F4EF" stroke="#339966" stroke-width="4"/>
<circle cx="80.1681" cy="76.554" r="14.2204" fill="#F8F4EF" stroke="#339966" stroke-width="4"/>
<path d="M16.6838 74.7142C17.5206 72.7832 20.4686 68.9212 25.5664 68.9212" stroke="#339966" stroke-width="4" stroke-linecap="round"/>
<path d="M72.2969 74.7142C73.1336 72.7832 76.0816 68.9212 81.1795 68.9212" stroke="#339966" stroke-width="4" stroke-linecap="round"/>
<circle cx="52.3618" cy="67.6715" r="3.79298" fill="#F8F4EF" stroke="#339966" stroke-width="4"/>
<path d="M47.9252 48.5984L42.3206 65.3543C49.5825 60.9557 53.899 60.9234 62.0167 65.3543L56.0918 48.5984C52.9023 45.6715 51.1147 45.7445 47.9252 48.5984Z" fill="#F8F4EF" stroke="#339966" stroke-width="4" stroke-linecap="round"/>
<path d="M6.81836 63.4515C4.2904 62.9462 -6.32634 40.7009 15.4131 33.6226C14.402 23.0059 24.5134 8.84999 42.7139 14.9166C57.881 -11.3729 95.7987 6.32211 88.7207 33.6226C98.193 35.2274 108.152 47.412 97.8209 63.4515" stroke="#339966" stroke-width="4" stroke-linecap="round"/>
</svg>
