<svg width="88" height="78" viewBox="0 0 88 78" fill="none" xmlns="http://www.w3.org/2000/svg">
<path d="M86 15.75C86 22.2244 82.4158 27.556 78.5852 31.3895C76.688 33.2882 74.7843 34.7636 73.3539 35.7637C72.8179 36.1385 72.3509 36.4447 71.9791 36.6798C71.6109 36.4555 71.15 36.1636 70.6217 35.8057C69.1958 34.8397 67.2975 33.4057 65.4055 31.5369C61.5943 27.7725 58 22.442 58 15.75C58 8.18566 64.2382 2 72 2C79.7618 2 86 8.18566 86 15.75Z" stroke="#FF6633" stroke-width="4"/>
<path d="M44 39.2115C44 48.6406 38.681 56.353 33.0988 61.8337C30.3274 64.5547 27.5491 66.6668 25.4624 68.0982C24.4332 68.8042 23.5769 69.3414 22.979 69.7016C22.3834 69.3567 21.5336 68.8427 20.5133 68.1646C18.4309 66.7806 15.6579 64.7259 12.8918 62.0455C7.32926 56.6554 2 48.944 2 39.2115C2 28.1142 11.3357 19 23 19C34.6643 19 44 28.1142 44 39.2115Z" stroke="#FF6633" stroke-width="4"/>
<circle cx="72" cy="16" r="6.5" stroke="#FF6633" stroke-width="3"/>
<circle cx="23" cy="40" r="12" stroke="#FF6633" stroke-width="4"/>
<path d="M44 39.2115C44 48.6406 38.681 56.353 33.0988 61.8337C30.3274 64.5547 27.5491 66.6668 25.4624 68.0982C24.4332 68.8042 23.5769 69.3414 22.979 69.7016C22.3834 69.3567 21.5336 68.8427 20.5133 68.1646C18.4309 66.7806 15.6579 64.7259 12.8918 62.0455C7.32926 56.6554 2 48.944 2 39.2115C2 28.1142 11.3357 19 23 19C34.6643 19 44 28.1142 44 39.2115Z" stroke="#FF6633" stroke-width="4"/>
<circle cx="23" cy="40" r="12" stroke="#FF6633" stroke-width="4"/>
<path d="M23 75.1433C23 75.1433 71.5014 79.1649 81.5017 69.7813C91.502 60.3976 48.0007 57.7166 52.5009 49.2266C57.001 40.7367 72.0015 42.0772 72.0015 42.0772" stroke="#FF6633" stroke-width="4" stroke-linecap="round"/>
</svg>
